#N canvas 338 38 670 719 12;
#X obj 379 51 inlet;
#X obj 73 49 inlet;
#X obj 104 529 ==;
#X obj 379 163 t a b;
#X obj 104 560 sel 1;
#X obj 73 666 outlet;
#X obj 73 622 float, f 20;
#X obj 228 272 list length;
#X obj 210 300 ==;
#X obj 105 237 t a a;
#X obj 210 200 list length;
#X obj 105 276 else/router;
#X obj 104 348 else/iterate;
#X obj 401 124 else/args;
#X obj 401 98 loadbang;
#X obj 104 385 t a b;
#X obj 97 470 route symbol float;
#X obj 316 472 route symbol float;
#X msg 302 579 0;
#X obj 273 550 sel x;
#X obj 315 431 list store;
#X obj 73 180 t b a b;
#X obj 425 343 else/count;
#X msg 425 314 reset;
#X msg 425 372 get \$1;
#X connect 0 0 3 0;
#X connect 1 0 21 0;
#X connect 2 0 4 0;
#X connect 3 0 7 0;
#X connect 3 0 20 1;
#X connect 4 1 6 1;
#X connect 6 0 5 0;
#X connect 7 0 8 1;
#X connect 8 0 6 1;
#X connect 8 0 11 1;
#X connect 9 0 11 0;
#X connect 9 1 10 0;
#X connect 10 0 8 0;
#X connect 11 1 12 0;
#X connect 12 0 15 0;
#X connect 13 0 3 0;
#X connect 14 0 13 0;
#X connect 15 0 16 0;
#X connect 15 1 22 0;
#X connect 16 0 19 0;
#X connect 16 1 2 0;
#X connect 17 0 19 1;
#X connect 17 1 2 1;
#X connect 18 0 6 1;
#X connect 19 1 18 0;
#X connect 20 0 17 0;
#X connect 20 1 18 0;
#X connect 21 0 6 0;
#X connect 21 1 9 0;
#X connect 21 2 23 0;
#X connect 22 0 24 0;
#X connect 23 0 22 0;
#X connect 24 0 20 0;
