#N canvas 393 74 639 397 12;
#X text 332 235 Part of ELSE \; https://github.com/porres/pd-else;
#X text 334 216 Alexandre Torres Porres (2025);
#X obj 206 63 inlet;
#X obj 70 63 inlet;
#X obj 70 314 outlet;
#X obj 206 209 list split 1;
#X obj 71 241 else/message;
#X obj 166 314 outlet;
#N canvas 391 172 392 399 select 0;
#X obj 67 50 inlet;
#X obj 241 328 outlet;
#X obj 136 329 outlet;
#X obj 168 50 inlet;
#X obj 168 111 route float symbol, f 21;
#X obj 67 191 else/router;
#X msg 141 161 0, f 2;
#X msg 181 161 1, f 2;
#X obj 136 252 sel 0;
#X obj 208 253 sel x;
#X connect 0 0 5 0;
#X connect 3 0 4 0;
#X connect 4 0 6 0;
#X connect 4 0 8 1;
#X connect 4 1 7 0;
#X connect 4 1 9 1;
#X connect 5 0 8 0;
#X connect 5 1 9 0;
#X connect 6 0 5 1;
#X connect 7 0 5 1;
#X connect 8 0 2 0;
#X connect 8 1 1 0;
#X connect 9 0 2 0;
#X connect 9 1 1 0;
#X restore 71 203 pd select;
#X f 14;
#X obj 229 134 else/args;
#X obj 229 104 loadbang;
#X obj 70 106 list split 1;
#X obj 229 165 else/default 0;
#X connect 2 0 5 0;
#X connect 3 0 11 0;
#X connect 5 0 6 1;
#X connect 5 0 8 1;
#X connect 6 0 4 0;
#X connect 8 0 6 0;
#X connect 8 1 7 0;
#X connect 9 0 12 0;
#X connect 10 0 9 0;
#X connect 11 0 8 0;
#X connect 11 1 5 0;
#X connect 12 0 5 0;
