#N canvas 472 168 719 470 12;
#X obj 154 25 inlet;
#X obj 186 405 outlet;
#X text 357 88 Part of ELSE \; https://github.com/porres/pd-else;
#X text 357 69 Alexandre Torres Porres (2022), f 33;
#N canvas 384 216 847 684 play 0;
#X obj 163 37 inlet;
#X obj 315 358 spigot;
#X obj 164 237 != 0;
#X msg 212 104 1;
#X msg 295 104 0;
#X msg 355 305 1;
#X obj 384 255 sel 1;
#X obj 384 229 v pause_\$0;
#X msg 361 167 1;
#X msg 307 167 0;
#X obj 384 595 outlet;
#X obj 644 590 outlet;
#X obj 361 200 &&;
#X obj 385 111 t b b;
#X obj 460 257 t b b;
#X msg 331 268 0;
#X obj 202 335 s \$0-rewind;
#X obj 134 336 t b b;
#X obj 164 305 sel 1 0, f 9;
#X obj 392 321 r \$0-next;
#X obj 194 360 s \$0-stop-delay;
#X obj 42 267 r \$0-restart;
#X obj 482 156 != 0;
#X obj 482 180 s \$0-loop;
#X obj 646 252 s \$0-tempo;
#X obj 646 203 / 100;
#X msg 646 227 tempo \$1 permillisecond;
#X obj 134 439 t b b;
#N canvas 512 99 635 777 goto 0;
#X obj 140 31 inlet;
#X obj 405 694 s \$0-goto-point;
#X obj 157 65 r \$0-goto;
#X obj 268 351 text sequence \$0-score, f 8;
#X obj 213 241 until;
#X msg 335 241 0;
#X msg 268 241 line 0;
#X obj 317 505 f;
#X obj 352 513 + 1;
#X obj 157 94 int;
#X obj 140 163 v goto_n_\$0;
#X obj 213 195 trigger bang bang float;
#X obj 352 572 select;
#X obj 427 338 f;
#X obj 462 346 + 1;
#X obj 405 645 f;
#X obj 213 265 t b b;
#X msg 213 296 step;
#X obj 157 123 max 1;
#X obj 149 372 s \$0-bar-n;
#X obj 100 229 moses 2;
#X obj 510 544 f;
#X obj 352 596 t b b b;
#X obj 510 589 s \$0-tempo;
#X obj 528 517 t f;
#X floatatom 401 231 5 0 0 0 - - - 0;
#X obj 221 417 else/route2 | tempo, f 12;
#X connect 0 0 10 0;
#X connect 2 0 9 0;
#X connect 3 0 26 0;
#X connect 3 1 4 1;
#X connect 4 0 16 0;
#X connect 5 0 7 1;
#X connect 5 0 13 1;
#X connect 6 0 3 0;
#X connect 7 0 8 0;
#X connect 8 0 7 1;
#X connect 8 0 12 0;
#X connect 9 0 18 0;
#X connect 10 0 20 0;
#X connect 11 0 4 0;
#X connect 11 1 5 0;
#X connect 11 1 6 0;
#X connect 11 2 12 1;
#X connect 11 2 25 0;
#X connect 12 0 22 0;
#X connect 13 0 14 0;
#X connect 13 0 15 1;
#X connect 14 0 13 1;
#X connect 15 0 1 0;
#X connect 16 0 17 0;
#X connect 16 1 13 0;
#X connect 17 0 3 0;
#X connect 18 0 10 0;
#X connect 20 1 11 0;
#X connect 20 1 19 0;
#X connect 21 0 23 0;
#X connect 22 0 15 0;
#X connect 22 1 21 0;
#X connect 22 2 4 1;
#X connect 24 0 21 1;
#X connect 26 0 7 0;
#X connect 26 1 24 0;
#X restore 195 441 pd goto;
#X obj 659 135 s \$0-goto;
#X obj 163 72 route float bang start stop pause continue play loop speed bar, f 64;
#X connect 0 0 30 0;
#X connect 1 0 10 0;
#X connect 2 0 1 1;
#X connect 2 0 12 1;
#X connect 2 0 18 0;
#X connect 3 0 2 0;
#X connect 4 0 2 0;
#X connect 5 0 1 1;
#X connect 5 0 12 1;
#X connect 6 0 5 0;
#X connect 6 0 10 0;
#X connect 7 0 6 0;
#X connect 8 0 12 0;
#X connect 9 0 12 0;
#X connect 12 0 7 0;
#X connect 13 0 9 0;
#X connect 13 1 7 0;
#X connect 14 0 5 0;
#X connect 14 1 10 0;
#X connect 15 0 1 1;
#X connect 17 0 27 0;
#X connect 17 1 16 0;
#X connect 18 0 17 0;
#X connect 18 1 9 0;
#X connect 18 1 16 0;
#X connect 18 1 20 0;
#X connect 19 0 1 0;
#X connect 21 0 17 0;
#X connect 22 0 23 0;
#X connect 25 0 26 0;
#X connect 26 0 24 0;
#X connect 27 0 10 0;
#X connect 27 1 28 0;
#X connect 30 0 2 0;
#X connect 30 1 3 0;
#X connect 30 2 3 0;
#X connect 30 3 4 0;
#X connect 30 4 8 0;
#X connect 30 4 15 0;
#X connect 30 5 13 0;
#X connect 30 6 14 0;
#X connect 30 7 22 0;
#X connect 30 8 25 0;
#X connect 30 9 29 0;
#X connect 30 10 11 0;
#X restore 154 58 pd play;
#X f 14;
#X text 193 428 dur;
#N canvas 713 112 410 418 text-get 0;
#X obj 113 124 until;
#X obj 145 93 r \$0-stop;
#X obj 166 168 + 1;
#X msg 227 109 0;
#X obj 229 257 sel 2;
#X obj 113 167 float;
#X obj 152 272 != 2;
#X obj 113 301 spigot;
#X obj 113 373 outlet;
#X obj 113 32 inlet;
#X obj 227 78 r \$0-rewind;
#X obj 287 284 s \$0-stop;
#X obj 283 256 v type_\$0;
#X obj 39 82 r \$0-rest;
#X obj 227 153 s \$0-route;
#X obj 113 217 text get \$0-score;
#X obj 272 112 r \$0-goto-point;
#X obj 229 284 t b b;
#X obj 229 314 s \$0-end;
#X connect 0 0 5 0;
#X connect 1 0 0 1;
#X connect 2 0 5 1;
#X connect 3 0 5 1;
#X connect 3 0 14 0;
#X connect 4 0 17 0;
#X connect 4 1 12 0;
#X connect 5 0 2 0;
#X connect 5 0 15 0;
#X connect 6 0 7 1;
#X connect 7 0 8 0;
#X connect 9 0 0 0;
#X connect 10 0 3 0;
#X connect 13 0 5 0;
#X connect 15 0 7 0;
#X connect 15 1 4 0;
#X connect 15 1 6 0;
#X connect 16 0 5 1;
#X connect 17 0 18 0;
#X connect 17 1 11 0;
#X restore 154 88 pd text-get;
#X obj 186 227 r \$0-duration;
#N canvas 194 142 603 488 parse 1;
#X obj 241 107 list split 1, f 39;
#X obj 351 380 list;
#X obj 197 273 abs;
#X obj 319 321 moses;
#X obj 351 353 b, f 1;
#X msg 50 246 bar \$1;
#X obj 197 327 delay;
#X obj 241 227 trigger float float float;
#N canvas 350 98 1059 761 get-tempo 1;
#X obj 481 19 inlet;
#X obj 297 432 -;
#X obj 265 381 t f f;
#X obj 265 344 * 60000;
#X obj 617 130 list split 2;
#X obj 617 274 list append;
#X obj 617 158 trigger bang list;
#X obj 617 248 v bpm_\$0;
#X obj 753 278 unpack f f f, f 18;
#X obj 191 196 else/add;
#X msg 335 395 0;
#X obj 42 19 inlet;
#X obj 640 425 s \$0-init;
#X obj 335 369 r \$0-init;
#X obj 79 162 else/router;
#X obj 191 105 r \$0-init;
#X msg 203 135 1;
#X obj 145 326 s \$0-finished;
#X obj 153 78 r \$0-finished;
#X msg 153 102 0;
#X obj 298 729 outlet;
#X obj 191 224 t f f;
#X obj 191 254 else/router;
#X obj 113 291 t f b;
#X obj 491 524 else/bpm;
#X obj 79 604 *;
#X obj 42 126 * 4;
#X obj 535 99 route float list, f 24;
#X obj 983 425 v Q_\$0;
#X obj 851 425 v ln_Q_\$0;
#X obj 720 425 v T_\$0;
#X obj 897 279 v N_\$0;
#X obj 814 307 v S2_\$0;
#X obj 753 307 v S1_\$0;
#X obj 265 225 expr $f1 <= N_\$0;
#X obj 265 278 expr T_\$0 / ln_Q_\$0 * ln(($f1 * ln_Q_\$0 / (T_\$0 * S1_\$0 ))+1), f 21;
#X obj 720 366 expr N_\$0 * ln_Q_\$0 / (S2_\$0 - S1_\$0) \; ln(Q_\$0) \; S2_\$0/S1_\$0;
#X obj 100 223 abs;
#X obj 100 197 t f f;
#X obj 132 240 v n_\$0;
#X obj 297 609 expr copysign($f1 \, n_\$0);
#X obj 113 417 expr copysign($f1 - N_\$0 \, n_\$0), f 17;
#X text 239 129 considering tempos that sum up to N exactly, f 11;
#X msg 591 523 tempo \$1;
#X obj 882 336 v delta_\$0;
#X obj 617 368 sel 1;
#X obj 617 304 t b l;
#X obj 617 336 expr (delta_\$0 = S2_\$0 - S1_\$0) != 0;
#X obj 617 395 t b b b;
#N canvas 727 73 506 519 beats 0;
#X obj 131 22 inlet;
#X obj 202 335 -;
#X obj 170 304 t f f;
#X obj 170 275 * 60000;
#X msg 238 335 0;
#X obj 238 308 r \$0-init;
#X obj 170 219 expr T_\$0 / ln_Q_\$0 * ln(($f1 * ln_Q_\$0 / (T_\$0 * S1_\$0 ))+1), f 21;
#X obj 202 108 r N_\$0;
#X obj 149 84 r \$0-init;
#X obj 131 140 f;
#X obj 170 149 + 1;
#X obj 170 180 moses;
#X obj 202 142 + 1;
#X obj 342 183 v S2_\$0;
#X msg 149 108 0;
#X obj 119 375 delay;
#X obj 202 375 else/bpm;
#X obj 366 230 v bpm_\$0;
#X obj 406 469 outlet;
#X obj 342 150 b;
#X obj 342 470 outlet;
#X obj 33 281 r \$0-stop-delay;
#X msg 33 315 stop;
#X obj 119 438 s \$0-next-beat-mono;
#X obj 143 52 r \$0-next-beat-mono;
#X connect 0 0 9 0;
#X connect 1 0 15 0;
#X connect 1 0 16 0;
#X connect 2 0 1 1;
#X connect 2 1 1 0;
#X connect 3 0 2 0;
#X connect 4 0 1 1;
#X connect 5 0 4 0;
#X connect 6 0 3 0;
#X connect 7 0 12 0;
#X connect 8 0 14 0;
#X connect 9 0 10 0;
#X connect 10 0 9 1;
#X connect 10 0 11 0;
#X connect 11 0 6 0;
#X connect 11 1 19 0;
#X connect 12 0 11 1;
#X connect 13 0 17 0;
#X connect 13 0 18 0;
#X connect 13 0 20 0;
#X connect 14 0 9 1;
#X connect 15 0 23 0;
#X connect 16 0 18 0;
#X connect 19 0 13 0;
#X connect 21 0 22 0;
#X connect 22 0 15 0;
#X connect 24 0 9 0;
#X restore 617 459 pd beats;
#X obj 876 307 s N_\$0;
#X obj 591 576 s \$0-data-out;
#X obj 42 93 v frac_\$0;
#X obj 42 63 b;
#X obj 481 68 route beat tempo;
#X obj 606 68 s \$0-data-out;
#X obj 481 143 symbol;
#X msg 481 173 beat \$1;
#X obj 346 108 else/frac2dec;
#X obj 346 136 expr 1/($f1*4);
#X obj 346 170 s \$0-length;
#X obj 298 686 * 1;
#X obj 316 655 r \$0-length;
#X obj 558 252 t f f;
#X obj 627 197 r \$0-tempo;
#X connect 0 0 54 0;
#X connect 1 0 40 0;
#X connect 2 0 1 1;
#X connect 2 1 1 0;
#X connect 3 0 2 0;
#X connect 4 0 6 0;
#X connect 5 0 46 0;
#X connect 6 0 7 0;
#X connect 6 1 5 1;
#X connect 7 0 5 0;
#X connect 8 0 33 0;
#X connect 8 1 32 0;
#X connect 8 2 50 0;
#X connect 9 0 21 0;
#X connect 10 0 1 1;
#X connect 11 0 53 0;
#X connect 13 0 10 0;
#X connect 14 0 25 0;
#X connect 14 1 38 0;
#X connect 15 0 16 0;
#X connect 15 0 9 0;
#X connect 16 0 14 1;
#X connect 18 0 19 0;
#X connect 19 0 14 1;
#X connect 21 0 22 0;
#X connect 21 1 34 0;
#X connect 22 0 23 0;
#X connect 22 1 35 0;
#X connect 23 0 41 0;
#X connect 23 1 17 0;
#X connect 24 0 25 1;
#X connect 25 0 61 0;
#X connect 26 0 14 0;
#X connect 27 0 7 0;
#X connect 27 0 63 0;
#X connect 27 1 4 0;
#X connect 34 0 22 1;
#X connect 35 0 3 0;
#X connect 36 0 30 0;
#X connect 36 1 29 0;
#X connect 36 2 28 0;
#X connect 37 0 9 0;
#X connect 38 0 37 0;
#X connect 38 1 39 0;
#X connect 40 0 61 0;
#X connect 41 0 25 0;
#X connect 43 0 51 0;
#X connect 45 0 48 0;
#X connect 46 0 47 0;
#X connect 46 1 8 0;
#X connect 47 0 45 0;
#X connect 48 0 49 0;
#X connect 48 1 12 0;
#X connect 48 2 36 0;
#X connect 49 0 24 0;
#X connect 49 1 43 0;
#X connect 52 0 26 0;
#X connect 53 0 52 0;
#X connect 54 0 56 0;
#X connect 54 0 58 0;
#X connect 54 1 27 0;
#X connect 54 2 55 0;
#X connect 56 0 57 0;
#X connect 57 0 51 0;
#X connect 58 0 59 0;
#X connect 59 0 60 0;
#X connect 61 0 20 0;
#X connect 62 0 61 1;
#X connect 63 0 24 0;
#X connect 63 1 43 0;
#X connect 64 0 63 0;
#X connect 64 0 7 0;
#X restore 241 192 pd get-tempo;
#N canvas 194 235 384 321 bar_count 0;
#X msg 154 164 reset;
#X obj 154 211 else/count -reset 1;
#X obj 154 122 r \$0-rewind;
#X obj 105 147 b;
#X obj 105 75 inlet;
#X obj 154 254 outlet;
#X obj 256 146 r \$0-bar-n;
#X msg 256 170 set \$1;
#X connect 0 0 1 0;
#X connect 1 0 5 0;
#X connect 2 0 0 0;
#X connect 3 0 1 0;
#X connect 4 0 3 0;
#X connect 6 0 7 0;
#X connect 7 0 1 0;
#X restore 50 218 pd bar_count;
#X obj 413 280 s \$0-duration;
#X obj 351 409 s \$0-event-data;
#X obj 85 404 s \$0-data-out;
#X obj 118 29 inlet;
#N canvas 597 38 465 442 route-check 0;
#X obj 151 215 v type_\$0;
#X obj 151 278 sel 1;
#X obj 77 101 else/router;
#X obj 151 246 t f f;
#X obj 205 249 == 1;
#X obj 205 277 s \$0-route;
#X obj 151 75 r \$0-route;
#X obj 151 304 s \$0-rest;
#X obj 77 344 outlet;
#X text 79 367 data;
#X obj 286 344 outlet;
#X text 288 367 event;
#X obj 151 146 trigger bang anything, f 24;
#X obj 77 33 inlet;
#X obj 316 213 s \$0-event-data;
#N canvas 255 47 579 457 check 0;
#X obj 125 118 route bang;
#X msg 192 147 \$1;
#X obj 192 173 else/frac2dec;
#X obj 63 24 inlet;
#X obj 63 262 else/router, f 38;
#X msg 277 206 1;
#X msg 326 208 0;
#X obj 63 373 outlet;
#X obj 326 373 outlet;
#X obj 63 67 trigger list list bang, f 27;
#X obj 63 317 list trim;
#X obj 358 336 s \$0-stop;
#X obj 326 302 t l b;
#X obj 192 229 v frac_\$0;
#X connect 0 1 1 0;
#X connect 1 0 2 0;
#X connect 2 0 5 0;
#X connect 2 0 13 0;
#X connect 3 0 9 0;
#X connect 4 0 10 0;
#X connect 4 1 12 0;
#X connect 5 0 4 1;
#X connect 6 0 4 1;
#X connect 9 0 4 0;
#X connect 9 1 0 0;
#X connect 9 2 6 0;
#X connect 10 0 7 0;
#X connect 12 0 8 0;
#X connect 12 1 11 0;
#X restore 77 145 pd check;
#X obj 163 183 trigger bang list, f 18;
#X connect 0 0 3 0;
#X connect 1 0 7 0;
#X connect 2 0 15 0;
#X connect 2 1 12 0;
#X connect 3 0 1 0;
#X connect 3 1 4 0;
#X connect 4 0 5 0;
#X connect 6 0 2 1;
#X connect 12 0 0 0;
#X connect 12 1 14 0;
#X connect 13 0 2 0;
#X connect 15 0 8 0;
#X connect 15 1 16 0;
#X connect 16 0 0 0;
#X connect 16 1 10 0;
#X restore 118 68 pd route-check;
#X f 18;
#X obj 197 359 s \$0-next;
#X obj 118 117 else/routeall | beat tempo, f 13;
#X obj 229 286 r \$0-tempo;
#X connect 0 0 8 0;
#X connect 0 1 1 1;
#X connect 1 0 11 0;
#X connect 2 0 6 0;
#X connect 3 1 4 0;
#X connect 4 0 1 0;
#X connect 5 0 12 0;
#X connect 6 0 15 0;
#X connect 7 0 2 0;
#X connect 7 1 3 0;
#X connect 7 2 10 0;
#X connect 8 0 7 0;
#X connect 9 0 5 0;
#X connect 13 0 14 0;
#X connect 14 0 16 0;
#X connect 14 1 0 0;
#X connect 16 0 9 0;
#X connect 16 1 8 1;
#X connect 16 2 8 1;
#X connect 16 3 12 0;
#X connect 17 0 6 0;
#X restore 154 120 pd parse;
#N canvas 724 116 633 482 score 0;
#X msg 204 168 close;
#X obj 80 27 inlet;
#X obj 450 245 s \$0-text;
#X obj 418 127 list;
#X obj 418 186 moses;
#X msg 450 216 line \$1;
#X obj 271 255 text define \$0-score;
#X f 22;
#X obj 418 156 text search \$0-score;
#N canvas 386 71 768 445 init 0;
#X obj 98 354 outlet;
#X msg 223 252 \$1 file not found;
#X obj 223 282 print [score2];
#X msg 98 220 read \$1;
#X obj 98 160 file which;
#X obj 97 124 list append 1;
#X obj 572 195 else/canvas.setname \$0-parent 1 1, f 19;
#X obj 451 128 text tolist \$0-score, f 22;
#X obj 391 100 savestate;
#X obj 455 184 spigot;
#X obj 494 159 r \$0-keep;
#X obj 390 239 text fromlist \$0-score;
#X obj 98 61 else/args -;
#N canvas 738 180 651 480 route-flags 0;
#X obj 173 58 inlet;
#X obj 71 187 route bang;
#X msg 170 269 1;
#X obj 170 295 s \$0-keep;
#X obj 179 166 route bang;
#X msg 276 264 1;
#X obj 276 292 s \$0-loop;
#X obj 138 215 t a b;
#X obj 246 206 t a b;
#X obj 463 366 outlet;
#X obj 396 106 route bang;
#X obj 365 296 s \$0-speed;
#X obj 365 259 / 100;
#X obj 371 208 route bang;
#X obj 331 158 list split 1;
#X obj 173 108 route -k -loop -speed;
#X connect 0 0 15 0;
#X connect 1 0 2 0;
#X connect 1 1 7 0;
#X connect 2 0 3 0;
#X connect 4 0 5 0;
#X connect 4 1 8 0;
#X connect 5 0 6 0;
#X connect 7 0 15 0;
#X connect 7 1 2 0;
#X connect 8 0 15 0;
#X connect 8 1 5 0;
#X connect 10 1 9 0;
#X connect 12 0 11 0;
#X connect 13 1 15 0;
#X connect 14 0 12 0;
#X connect 14 1 13 0;
#X connect 15 0 1 0;
#X connect 15 1 4 0;
#X connect 15 2 14 0;
#X connect 15 3 10 0;
#X restore 98 91 pd route-flags;
#X obj 214 105 s \$0-speed;
#X msg 214 77 set 1;
#X obj 98 23 else/loadbanger 2;
#X connect 1 0 2 0;
#X connect 3 0 0 0;
#X connect 4 0 3 0;
#X connect 4 1 1 0;
#X connect 5 0 4 0;
#X connect 7 0 9 0;
#X connect 8 0 11 0;
#X connect 8 1 7 0;
#X connect 9 0 8 0;
#X connect 10 0 9 1;
#X connect 12 0 13 0;
#X connect 13 0 5 0;
#X connect 15 0 14 0;
#X connect 16 0 12 0;
#X connect 16 1 15 0;
#X restore 294 224 pd init;
#N canvas 454 38 286 477 save 0;
#X obj 136 215 pdcontrol;
#X msg 136 188 dir 1;
#X obj 136 241 pack s s;
#X obj 136 161 t b s, f 10;
#X obj 55 213 savepanel;
#X obj 55 97 route bang, f 12;
#X msg 55 253 write \$1;
#X obj 136 133 symbol;
#X obj 55 182 pdcontrol;
#X msg 55 155 dir 1;
#X obj 136 312 outlet;
#X msg 136 267 write \$1/\$2;
#X obj 55 56 inlet;
#X obj 63 127 r \$0-save;
#X connect 0 0 2 0;
#X connect 1 0 0 0;
#X connect 2 0 11 0;
#X connect 3 0 1 0;
#X connect 3 1 2 1;
#X connect 4 0 6 0;
#X connect 5 0 9 0;
#X connect 5 1 7 0;
#X connect 6 0 10 0;
#X connect 7 0 3 0;
#X connect 8 0 4 0;
#X connect 9 0 8 0;
#X connect 11 0 10 0;
#X connect 12 0 5 0;
#X connect 13 0 9 0;
#X restore 80 167 pd save;
#N canvas 183 76 286 477 open 0;
#X obj 136 215 pdcontrol;
#X msg 136 188 dir 1;
#X obj 136 241 pack s s;
#X obj 136 161 t b s, f 10;
#X obj 55 97 route bang, f 12;
#X obj 136 133 symbol;
#X obj 55 182 pdcontrol;
#X msg 55 155 dir 1;
#X obj 136 312 outlet;
#X obj 55 56 inlet;
#X msg 55 253 read \$1;
#X msg 136 267 read \$1/\$2;
#X obj 55 213 openpanel;
#X obj 63 130 r \$0-open;
#X connect 0 0 2 0;
#X connect 1 0 0 0;
#X connect 2 0 11 0;
#X connect 3 0 1 0;
#X connect 3 1 2 1;
#X connect 4 0 7 0;
#X connect 4 1 5 0;
#X connect 5 0 3 0;
#X connect 6 0 12 0;
#X connect 7 0 6 0;
#X connect 9 0 4 0;
#X connect 10 0 8 0;
#X connect 11 0 8 0;
#X connect 12 0 10 0;
#X connect 13 0 7 0;
#X restore 139 167 pd open;
#X obj 80 66 route save open show hide goto;
#N canvas 222 137 455 351 click 0;
#N canvas 890 239 478 490 modifiers 0;
#X obj 99 110 else/keypress -toggle Shift_L, f 15;
#X obj 125 156 else/keypress -toggle Shift_R, f 15;
#X obj 99 228 ||;
#X obj 125 194 t b f;
#X obj 298 368 outlet;
#X obj 297 233 ||;
#X obj 319 196 t b f;
#X obj 297 115 else/keypress -toggle Alt_L, f 13;
#X obj 319 158 else/keypress -toggle Alt_R, f 13;
#X obj 297 257 * 2;
#X obj 297 290 t b f;
#X obj 298 330 +;
#X obj 54 296 r \$0-open;
#X obj 31 105 t f f;
#X obj 54 366 r \$0-save;
#X obj 240 102 t f f;
#X obj 31 81 r clear-open-for-score2;
#X obj 240 78 r clear-save-for-score2;
#X obj 54 329 s clear-open-for-score2;
#X obj 54 399 s clear-save-for-score2;
#X connect 0 0 2 0;
#X connect 1 0 3 0;
#X connect 2 0 11 0;
#X connect 3 0 2 0;
#X connect 3 1 2 1;
#X connect 5 0 9 0;
#X connect 6 0 5 0;
#X connect 6 1 5 1;
#X connect 7 0 5 0;
#X connect 8 0 6 0;
#X connect 9 0 10 0;
#X connect 10 0 11 0;
#X connect 10 1 11 1;
#X connect 11 0 4 0;
#X connect 12 0 18 0;
#X connect 13 0 2 0;
#X connect 13 1 2 1;
#X connect 14 0 19 0;
#X connect 15 0 5 0;
#X connect 15 1 5 1;
#X connect 16 0 13 0;
#X connect 17 0 15 0;
#X restore 229 106 pd modifiers;
#X obj 141 137 else/router 3;
#X msg 141 103 click;
#X obj 141 70 else/click;
#X obj 84 31 inlet;
#X obj 140 281 outlet;
#X obj 229 199 s \$0-save;
#X obj 185 235 s \$0-open;
#X obj 229 169 b;
#X obj 185 169 b;
#X connect 0 0 1 1;
#X connect 1 0 5 0;
#X connect 1 1 9 0;
#X connect 1 2 8 0;
#X connect 2 0 1 0;
#X connect 3 0 2 0;
#X connect 4 0 2 0;
#X connect 8 0 6 0;
#X connect 9 0 7 0;
#X restore 271 165 pd click;
#X obj 422 299 route updated;
#X msg 422 378 dirty 1;
#X obj 422 402 s \$0-parent;
#X obj 422 351 spigot;
#X obj 461 326 r \$0-keep;
#X connect 0 0 6 0;
#X connect 1 0 11 0;
#X connect 3 0 7 0;
#X connect 4 1 5 0;
#X connect 5 0 2 0;
#X connect 6 1 13 0;
#X connect 7 0 4 0;
#X connect 8 0 6 0;
#X connect 9 0 6 0;
#X connect 10 0 6 0;
#X connect 11 0 9 0;
#X connect 11 1 10 0;
#X connect 11 2 12 0;
#X connect 11 3 0 0;
#X connect 11 4 3 0;
#X connect 12 0 6 0;
#X connect 13 0 16 0;
#X connect 14 0 15 0;
#X connect 16 0 14 0;
#X connect 17 0 16 1;
#X restore 249 88 pd score;
#X obj 76 405 outlet;
#X obj 296 405 outlet;
#X obj 410 405 outlet;
#X obj 410 176 r \$0-end;
#X text 285 428 score data;
#X text 63 428 event data;
#X text 416 428 end;
#X obj 45 176 r \$0-event-data;
#X obj 296 176 r \$0-data-out;
#X obj 484 176 r \$0-loop;
#X obj 410 226 else/router;
#X obj 504 381 s \$0-restart;
#X obj 484 252 t b b;
#X obj 410 252 t b b;
#X msg 311 358 end;
#X obj 45 217 t b a;
#X msg 115 256 1;
#X obj 504 353 spigot;
#X obj 543 253 r \$0-rewind;
#X msg 543 291 0;
#X obj 543 326 change;
#X connect 0 0 4 0;
#X connect 4 0 6 0;
#X connect 4 1 9 0;
#X connect 6 0 8 0;
#X connect 7 0 1 0;
#X connect 13 0 20 0;
#X connect 17 0 25 0;
#X connect 18 0 11 0;
#X connect 19 0 20 1;
#X connect 20 0 23 0;
#X connect 20 1 22 0;
#X connect 22 0 27 0;
#X connect 22 1 12 0;
#X connect 23 0 12 0;
#X connect 23 1 24 0;
#X connect 24 0 11 0;
#X connect 25 0 26 0;
#X connect 25 1 10 0;
#X connect 26 0 30 0;
#X connect 27 0 21 0;
#X connect 28 0 29 0;
#X connect 29 0 30 0;
#X connect 30 0 27 1;
