#N canvas 34 78 500 372 12;
#X obj 304 544 outlet~;
#X obj 228 14 inlet;
#X obj 226 43 routeall play add remove clear select play pos;
#X msg 555 417 pos 0 \, pause;
#X obj 100 468 s \$0-samplerate;
#X obj 417 391 r \$0-samplerate;
#X obj 103 42 r \$0-samplerate;
#X obj 99 407 else/sample~ \$0-active;
#X obj 102 330 else/routeall open pos resume pause;
#X obj 668 227 pdlua;
#X msg 516 232 \; pdluaxjit reload;
#X obj 543 71 tosymbol;
#X msg 544 101 no method for '\$1';
#X obj 545 134 print playlist~;
#X obj 556 393 delay 15;
#X obj 305 452 else/tabplayer~ \$0-active 16;
#X obj 304 517 snake~ in 16, f 28;
#X msg 99 436 sr \$2;
#X obj 100 100 ./playlist-gui;
#X connect 1 0 2 0;
#X connect 2 0 18 0;
#X connect 2 1 18 0;
#X connect 2 2 18 0;
#X connect 2 3 18 0;
#X connect 2 4 18 0;
#X connect 2 5 18 0;
#X connect 2 6 18 0;
#X connect 2 7 11 0;
#X connect 3 0 15 0;
#X connect 5 0 15 0;
#X connect 6 0 18 0;
#X connect 7 0 17 0;
#X connect 8 0 7 0;
#X connect 8 1 15 0;
#X connect 8 2 15 0;
#X connect 8 3 15 0;
#X connect 11 0 12 0;
#X connect 12 0 13 0;
#X connect 14 0 3 0;
#X connect 15 0 16 0;
#X connect 15 1 16 1;
#X connect 15 2 16 2;
#X connect 15 3 16 3;
#X connect 15 4 16 4;
#X connect 15 5 16 5;
#X connect 15 6 16 6;
#X connect 15 7 16 7;
#X connect 15 8 16 8;
#X connect 15 9 16 9;
#X connect 15 10 16 10;
#X connect 15 11 16 11;
#X connect 15 12 16 12;
#X connect 15 13 16 13;
#X connect 15 14 16 14;
#X connect 15 15 16 15;
#X connect 15 16 14 0;
#X connect 16 0 0 0;
#X connect 17 0 4 0;
#X connect 18 0 8 0;
#X coords 0 -1 1 1 300 190 1 100 100;
