#N canvas 300 95 617 520 12;
#X declare -path else;
#N canvas 243 43 499 411 preset 1;
#X obj 125 121 else/sender 1 \\\$0-presets;
#X msg 125 86 name \$1;
#X obj 90 171 else/receiver;
#X obj 123 220 route list;
#N canvas 468 182 491 352 id-name-init 1;
#X obj 165 113 + 1;
#X obj 257 100 else/dollsym 1;
#X obj 141 80 value;
#X obj 141 252 outlet;
#X obj 141 51 else/loadbanger 2;
#X obj 141 201 else/dollsym 1;
#X obj 141 166 makefilename \\\$0-instr-%d;
#X obj 257 76 symbol instr-id_\\\$0;
#X connect 0 0 2 0;
#X connect 1 0 2 1;
#X connect 2 0 0 0;
#X connect 2 0 6 0;
#X connect 4 0 2 0;
#X connect 4 1 7 0;
#X connect 5 0 3 0;
#X connect 6 0 5 0;
#X connect 7 0 1 0;
#X restore 90 39 pd id-name-init;
#X obj 123 257 else/dispatch \$0-set-pgm, f 25;
#X obj 90 311 else/var \$0-pgm;
#X connect 1 0 0 0;
#X connect 2 0 3 0;
#X connect 2 0 6 0;
#X connect 3 0 5 0;
#X connect 4 0 1 0;
#X connect 4 0 2 0;
#X restore 443 225 pd preset;
#N canvas 171 120 601 317 init-savestate 0;
#X obj 74 87 savestate;
#X obj 320 171 declare -path else;
#X obj 49 125 list;
#X obj 49 43 loadbang;
#X obj 134 119 else/var \$0-pgm;
#X obj 49 222 else/dispatch \$0-set-pgm, f 50;
#X obj 49 171 else/default 1;
#X connect 0 0 2 1;
#X connect 0 1 4 0;
#X connect 2 0 6 0;
#X connect 3 0 2 0;
#X connect 4 0 0 0;
#X connect 6 0 5 0;
#X restore 443 191 pd init-savestate;
#N canvas 238 198 628 377 GUI 0;
#X msg 123 147 set \$1;
#X obj 331 133 savestate;
#X obj 295 98 else/midi.learn;
#A saved;
#A saved ctlin 15 12;
#X obj 295 278 rescale -1 1;
#X obj 416 133 list prepend teach;
#X obj 391 163 list;
#X obj 331 233 list trim;
#X obj 331 191 else/routeall teach, f 13;
#X obj 440 234 s \$0-patch;
#X msg 440 204 dirty 1;
#X obj 440 163 else/changed;
#X obj 295 310 s \$0-set-pgm;
#X obj 123 187 s \$0-set-pgm;
#X obj 123 109 r \$0-pgm;
#X obj 295 61 r \$0-pgm-learn;
#X connect 0 0 12 0;
#X connect 1 0 7 0;
#X connect 1 1 5 0;
#X connect 2 0 3 0;
#X connect 2 1 4 0;
#X connect 3 0 11 0;
#X connect 4 0 5 1;
#X connect 4 0 10 0;
#X connect 5 0 1 0;
#X connect 6 0 2 0;
#X connect 7 0 6 0;
#X connect 7 0 10 1;
#X connect 9 0 8 0;
#X connect 10 0 9 0;
#X connect 13 0 0 0;
#X connect 14 0 2 0;
#X restore 443 162 pd GUI;
#X text 201 129 IN;
#N canvas 227 82 394 451 (subpatch) 0;
#X obj 112 110 cnv 15 215 83 empty empty empty 20 12 0 14 #dbdbdb #373737 0;
#X obj 147 118 note 145 24 Inter empty 5 54 54 54 0 187 187 187 1 1 INSTRUMENT;
#X obj 124 159 popmenu 191 21 12 #dfdfdf black \  \$0-set-pgm \$0-pgm empty empty 1 0 -1 1 0 1 0 0 0 0 0 -1\ -\ Drum\ Kit 0\ -\ Acoustic\ Grand\ Piano 1\ -\ Bright\ Acoustic\ Piano 2\ -\ Electric\ Grand\ Piano 3\ -\ Honky-tonk\ Piano 4\ -\ Rhodes\ Piano 5\ -\ Chorused\ Piano 6\ -\ Harpsichord 7\ -\ Clavinet 8\ -\ Celesta 9\ -\ Glockenspiel 10\ -\ Music\ Box 11\ -\ Vibraphone 12\ -\ Marimba 13\ -\ Xylophone 14\ -\ Tubular\ Bells 15\ -\ Dulcimer 16\ -\ Hammond\ Organ 17\ -\ Percussive\ Organ 18\ -\ Rock\ Organ 19\ -\ Church\ Organ 20\ -\ Reed\ Organ 21\ -\ Accordion 22\ -\ Harmonica 23\ -\ Tango\ Accordion 24\ -\ Acoustic\ Nylon\ Guitar 25\ -\ Acoustic\ Steel\ Guitar 26\ -\ Electric\ Jazz\ Guitar 27\ -\ Electric\ Clean\ Guitar 28\ -\ Electric\ Muted\ Guitar 29\ -\ Overdriven\ Guitar 30\ -\ Distortion\ Guitar 31\ -\ Guitar\ Harmonics 32\ -\ Acoustic\ Bass 33\ -\ Fingered\ Electric\ Bass 34\ -\ Plucked\ Electric\ Bass 35\ -\ Fretless\ Bass 36\ -\ Slap\ Bass\ 1 37\ -\ Slap\ Bass\ 2 38\ -\ Synth\ Bass\ 1 39\ -\ Synth\ Bass\ 2 40\ -\ Violin 41\ -\ Viola 42\ -\ Cello 43\ -\ Contrabass 44\ -\ Tremolo\ Strings 45\ -\ Pizzicato\ Strings 46\ -\ Orchestral\ Harp 47\ -\ Timpani 48\ -\ String\ Ensemble\ 1 49\ -\ String\ Ensemble\ 2 50\ -\ Synth\ Strings\ 1 51\ -\ Synth\ Strings\ 2 52\ -\ Choir\ Aah 53\ -\ Choir\ Ooh 54\ -\ Synth\ Voice 55\ -\ Orchestral\ Hit 56\ -\ Trumpet 57\ -\ Trombone 58\ -\ Tuba 59\ -\ Muted\ Trumpet 60\ -\ French\ Horn 61\ -\ Brass\ Section 62\ -\ Synth\ Brass\ 1 63\ -\ Synth\ Brass\ 2 64\ -\ Soprano\ Sax 65\ -\ Alto\ Sax 66\ -\ Tenor\ Sax 67\ -\ Baritone\ Sax 68\ -\ Oboe 69\ -\ English\ Horn 70\ -\ Bassoon 71\ -\ Clarinet 72\ -\ Piccolo 73\ -\ Flute 74\ -\ Recorder 75\ -\ Pan\ Flute 76\ -\ Bottle\ Blow 77\ -\ Shakuhachi 78\ -\ Whistle 79\ -\ Ocarina 80\ -\ Square\ Wave\ Lead 81\ -\ Sawtooth\ Wave\ Lead 82\ -\ Calliope\ Lead 83\ -\ Chiff\ Lead 84\ -\ Charang\ Lead 85\ -\ Voice\ Lead 86\ -\ Fifths\ Lead 87\ -\ Bass\ Lead 88\ -\ New\ Age\ Pad 89\ -\ Warm\ Pad 90\ -\ Polysynth\ Pad 91\ -\ Choir\ Pad 92\ -\ Bowed\ Pad 93\ -\ Metallic\ Pad 94\ -\ Halo\ Pad 95\ -\ Sweep\ Pad 96\ -\ Rain\ Effect 97\ -\ Soundtrack\ Effect 98\ -\ Crystal\ Effect 99\ -\ Atmosphere\ Effect 100\ -\ Brightness\ Effect 101\ -\ Goblins\ Effect 102\ -\ Echoes\ Effect 103\ -\ Sci-Fi\ Effect 104\ -\ Sitar 105\ -\ Banjo 106\ -\ Shamisen 107\ -\ Koto 108\ -\ Kalimba 109\ -\ Bagpipe 110\ -\ Fiddle 111\ -\ Shanai 112\ -\ Tinkle\ Bell 113\ -\ Agogo 114\ -\ Steel\ Drums 115\ -\ Woodblock 116\ -\ Taiko\ Drum 117\ -\ Melodic\ Tom 118\ -\ Synth\ Drum 119\ -\ Reverse\ Cymbal 120\ -\ Guitar\ Fret\ Noise 121\ -\ Breath\ Noise 122\ -\ Seashore 123\ -\ Bird\ Tweet 124\ -\ Telephone\ Ring 125\ -\ Helicopter 126\ -\ Applause 127\ -\ Gun\ Shot;
#X msg 415 -3 loadbang;
#X msg 415 39 clear \, add -1\ -\ Drum\ Kit \, add 0\ -\ Acoustic\ Grand\ Piano \, add 1\ -\ Bright\ Acoustic\ Piano \, add 2\ -\ Electric\ Grand\ Piano \, add 3\ -\ Honky-tonk\ Piano \, add 4\ -\ Rhodes\ Piano \, add 5\ -\ Chorused\ Piano \, add 6\ -\ Harpsichord \, add 7\ -\ Clavinet \, add 8\ -\ Celesta \, add 9\ -\ Glockenspiel \, add 10\ -\ Music\ Box \, add 11\ -\ Vibraphone \, add 12\ -\ Marimba \, add 13\ -\ Xylophone \, add 14\ -\ Tubular\ Bells \, add 15\ -\ Dulcimer \, add 16\ -\ Hammond\ Organ \, add 17\ -\ Percussive\ Organ \, add 18\ -\ Rock\ Organ \, add 19\ -\ Church\ Organ \, add 20\ -\ Reed\ Organ \, add 21\ -\ Accordion \, add 22\ -\ Harmonica \, add 23\ -\ Tango\ Accordion \, add 24\ -\ Acoustic\ Nylon\ Guitar \, add 25\ -\ Acoustic\ Steel\ Guitar \, add 26\ -\ Electric\ Jazz\ Guitar \, add 27\ -\ Electric\ Clean\ Guitar \, add 28\ -\ Electric\ Muted\ Guitar \, add 29\ -\ Overdriven\ Guitar \, add 30\ -\ Distortion\ Guitar \, add 31\ -\ Guitar\ Harmonics \, add 32\ -\ Acoustic\ Bass \, add 33\ -\ Fingered\ Electric\ Bass \, add 34\ -\ Plucked\ Electric\ Bass \, add 35\ -\ Fretless\ Bass \, add 36\ -\ Slap\ Bass\ 1 \, add 37\ -\ Slap\ Bass\ 2 \, add 38\ -\ Synth\ Bass\ 1 \, add 39\ -\ Synth\ Bass\ 2 \, add 40\ -\ Violin \, add 41\ -\ Viola \, add 42\ -\ Cello \, add 43\ -\ Contrabass \, add 44\ -\ Tremolo\ Strings \, add 45\ -\ Pizzicato\ Strings \, add 46\ -\ Orchestral\ Harp \, add 47\ -\ Timpani \, add 48\ -\ String\ Ensemble\ 1 \, add 49\ -\ String\ Ensemble\ 2 \, add 50\ -\ Synth\ Strings\ 1 \, add 51\ -\ Synth\ Strings\ 2 \, add 52\ -\ Choir\ Aah \, add 53\ -\ Choir\ Ooh \, add 54\ -\ Synth\ Voice \, add 55\ -\ Orchestral\ Hit \, add 56\ -\ Trumpet \, add 57\ -\ Trombone \, add 58\ -\ Tuba \, add 59\ -\ Muted\ Trumpet \, add 60\ -\ French\ Horn \, add 61\ -\ Brass\ Section \, add 62\ -\ Synth\ Brass\ 1 \, add 63\ -\ Synth\ Brass\ 2 \, add 64\ -\ Soprano\ Sax \, add 65\ -\ Alto\ Sax \, add 66\ -\ Tenor\ Sax \, add 67\ -\ Baritone\ Sax \, add 68\ -\ Oboe \, add 69\ -\ English\ Horn \, add 70\ -\ Bassoon \, add 71\ -\ Clarinet \, add 72\ -\ Piccolo \, add 73\ -\ Flute \, add 74\ -\ Recorder \, add 75\ -\ Pan\ Flute \, add 76\ -\ Bottle\ Blow \, add 77\ -\ Shakuhachi \, add 78\ -\ Whistle \, add 79\ -\ Ocarina \, add 80\ -\ Square\ Wave\ Lead \, add 81\ -\ Sawtooth\ Wave\ Lead \, add 82\ -\ Calliope\ Lead \, add 83\ -\ Chiff\ Lead \, add 84\ -\ Charang\ Lead \, add 85\ -\ Voice\ Lead \, add 86\ -\ Fifths\ Lead \, add 87\ -\ Bass\ Lead \, add 88\ -\ New\ Age\ Pad \, add 89\ -\ Warm\ Pad \, add 90\ -\ Polysynth\ Pad \, add 91\ -\ Choir\ Pad \, add 92\ -\ Bowed\ Pad \, add 93\ -\ Metallic\ Pad \, add 94\ -\ Halo\ Pad \, add 95\ -\ Sweep\ Pad \, add 96\ -\ Rain\ Effect \, add 97\ -\ Soundtrack\ Effect \, add 98\ -\ Crystal\ Effect \, add 99\ -\ Atmosphere\ Effect \, add 100\ -\ Brightness\ Effect \, add 101\ -\ Goblins\ Effect \, add 102\ -\ Echoes\ Effect \, add 103\ -\ Sci-Fi\ Effect \, add 104\ -\ Sitar \, add 105\ -\ Banjo \, add 106\ -\ Shamisen \, add 107\ -\ Koto \, add 108\ -\ Kalimba \, add 109\ -\ Bagpipe \, add 110\ -\ Fiddle \, add 111\ -\ Shanai \, add 112\ -\ Tinkle\ Bell \, add 113\ -\ Agogo \, add 114\ -\ Steel\ Drums \, add 115\ -\ Woodblock \, add 116\ -\ Taiko\ Drum \, add 117\ -\ Melodic\ Tom \, add 118\ -\ Synth\ Drum \, add 119\ -\ Reverse\ Cymbal \, add 120\ -\ Guitar\ Fret\ Noise \, add 121\ -\ Breath\ Noise \, add 122\ -\ Seashore \, add 123\ -\ Bird\ Tweet \, add 124\ -\ Telephone\ Ring \, add 125\ -\ Helicopter \, add 126\ -\ Applause \, add 127\ -\ Gun\ Shot \,;
#X connect 3 0 4 0;
#X connect 4 0 2 0;
#X coords 0 1 100 -1 216 84 1 111 110;
#X restore 208 154 graph;
#X obj 252 375 inlet;
#X obj 252 514 else/sfont~ sf/GeneralUser_GS.sf3;
#X msg 297 375 pgm \$1;
#X obj 297 252 r \$0-pgm;
#X obj 252 559 outlet~;
#X obj 346 559 outlet~;
#X obj 363 403 sel 0 1;
#X obj 252 443 list append;
#X obj 363 375 == 0;
#X msg 349 436 1;
#X msg 380 436 10;
#X text 418 438 <- set channel 10 for drum kit option;
#X obj 297 300 - 1;
#X obj 296 334 max 0;
#X obj 155 262 r \$0-set-pgm;
#X obj 99 292 print;
#X connect 5 0 12 0;
#X connect 6 0 9 0;
#X connect 6 1 10 0;
#X connect 7 0 6 0;
#X connect 8 0 13 0;
#X connect 8 0 17 0;
#X connect 11 0 14 0;
#X connect 11 1 15 0;
#X connect 12 0 6 0;
#X connect 13 0 11 0;
#X connect 14 0 12 1;
#X connect 15 0 12 1;
#X connect 17 0 18 0;
#X connect 18 0 7 0;
#X connect 19 0 20 0;
#X coords 0 1 100 -1 216 84 2 208 154;
