#N canvas 528 38 564 585 10;
#X listbox 50 304 48 0 0 0 - - - 10;
#X obj 308 6 cnv 15 250 40 empty empty empty 12 13 0 18 #7c7c7c #e0e4dc 0;
#N canvas 382 141 749 319 (subpatch) 0;
#X coords 0 -1 1 1 252 42 2 100 100;
#X restore 307 5 pd;
#X obj 347 13 cnv 10 10 10 empty empty ELSE 0 15 2 30 #7c7c7c #e0e4dc 0;
#X obj 25 42 cnv 4 4 4 empty empty Biquad\ filter\ coefficient\ generator\ GUI 0 28 2 18 #e0e0e0 #000000 0;
#X obj 460 13 cnv 10 10 10 empty empty EL 0 6 2 13 #7c7c7c #e0e4dc 0;
#X obj 480 13 cnv 10 10 10 empty empty Locus 0 6 2 13 #7c7c7c #e0e4dc 0;
#X obj 517 13 cnv 10 10 10 empty empty Solus' 0 6 2 13 #7c7c7c #e0e4dc 0;
#X obj 466 28 cnv 10 10 10 empty empty ELSE 0 6 2 13 #7c7c7c #e0e4dc 0;
#X obj 504 28 cnv 10 10 10 empty empty library 0 6 2 13 #7c7c7c #e0e4dc 0;
#X obj 5 5 cnv 15 301 42 empty empty bicoeff 20 20 2 37 #e0e0e0 #000000 0;
#N canvas 0 22 450 278 (subpatch) 0;
#X coords 0 1 100 -1 302 42 1 0 0;
#X restore 4 5 graph;
#X obj 4 461 cnv 3 550 3 empty empty outlets 8 12 0 13 #dcdcdc #000000 0;
#X obj 82 469 cnv 17 3 17 empty empty 0 5 9 0 16 #dcdcdc #9c9c9c 0;
#X text 132 470 list;
#X text 168 470 - 5 coefficients for the vanilla [biquad~] object;
#X obj 4 363 cnv 3 550 3 empty empty inlets 8 12 0 13 #dcdcdc #000000 0;
#X obj 82 372 cnv 17 3 80 empty empty 0 5 9 0 16 #dcdcdc #9c9c9c 0;
#X text 207 388 -;
#X text 148 388 anything;
#N canvas 644 54 542 582 examples 1;
#X obj 44 418 noise~;
#X listbox 27 369 57 0 0 0 - - - 12;
#X obj 27 498 out~;
#X msg 150 30 allpass;
#X msg 167 72 bandpass;
#X msg 175 93 resonant;
#X obj 27 162 r \$0-set;
#X obj 150 166 s \$0-set;
#X msg 159 51 bandstop;
#X text 37 30 set filter types:;
#X msg 322 48 highshelf;
#X msg 311 25 lowshelf;
#X obj 311 96 s \$0-set;
#X text 241 29 with gain (y axis):, f 9;
#X text 479 262 0 dB;
#X text 144 406 The range is logarithmic in MIDI pitch (horizontal axis) and dB (vertical axis). The horizontal line is for 0 dB and the vertical lines represent and set the bandwidth or slope (for the shelving filters). You can click anywhere on the object to set frequency by moving through the horizontal axis \, but if you click on the vertical lines you can set bandwidth instead. The Y axis sets gain for 3 filter types: "eq \, lowshelf and highshelf).;
#X obj 27 194 else/bicoeff 450 150 lowpass 1000 10 13.3334 1;
#X obj 308 543 else/morph 20 2;
#X msg 182 118 lowpass 1000 10;
#X msg 188 139 highpass 250 5;
#X msg 331 70 eq 5000 5 -10;
#X text 423 64 optional args freq \, Q & gain, f 14;
#X text 287 130 optional args freq & Q;
#X msg 60 101 savestate \$1;
#X obj 60 72 tgl 19 0 empty empty empty 0 -8 0 10 #dfdfdf #000000 #000000 0 1;
#X obj 28 101 bng 19 250 50 0 empty empty empty 0 -8 0 10 #dfdfdf #000000 #000000;
#X text 149 505 Note: if you click and drag too quickly you might get some clicks. Use [morph~] in this case with a short grain size.;
#X obj 27 459 biquad~ 0 0 1 0 0;
#X connect 0 0 27 0;
#X connect 1 0 27 0;
#X connect 3 0 7 0;
#X connect 4 0 7 0;
#X connect 5 0 7 0;
#X connect 6 0 16 0;
#X connect 8 0 7 0;
#X connect 10 0 12 0;
#X connect 11 0 12 0;
#X connect 16 0 1 0;
#X connect 18 0 7 0;
#X connect 19 0 7 0;
#X connect 20 0 12 0;
#X connect 23 0 7 0;
#X connect 24 0 23 0;
#X connect 25 0 7 0;
#X connect 27 0 2 0;
#X restore 450 308 pd examples;
#X obj 4 495 cnv 3 550 3 empty empty flags 8 12 0 13 #dcdcdc #000000 0;
#X obj 4 545 cnv 15 552 21 empty empty empty 20 12 0 14 #e0e0e0 #202020 0;
#X text 137 503 -dim <float \, float>: width \, height (default: 450 \, 150);
#X obj 50 141 else/bicoeff 450 150 peaking 1000 0.5 0 0;
#N canvas 285 152 940 485 see_also 0;
#X obj 649 44 else/bandpass~;
#X obj 651 70 else/bandstop~;
#X obj 746 44 else/lowpass~;
#X obj 746 70 else/highpass~;
#X obj 746 94 else/lowshelf~;
#X obj 746 119 else/highshelf~;
#X obj 651 94 else/resonant~;
#X obj 651 119 else/eq~;
#X obj 17 173 else/biplot;
#X obj 679 14 else/allpass.2nd~;
#X obj 218 54 else/bicoeff2;
#X text 20 31 [bicoeff2] produces the same filter coefficients as [bicoeff] \, but without any GUI.;
#X text 21 89 The [else/biplot] object below plots filter information with more detail for any biquad coefficient (so it's a great companion to [bicoeff2])., f 55;
#X text 381 48 The ELSE library carries related objects with all the filter types from the biquad coefficient generators and with the same name! These have signal inlets to control all the parameters. Here they are -------->, f 43;
#X restore 450 331 pd see_also;
#X text 90 91 [bicoeff] is a GUI that generates coefficients for vanilla's [biquad~] according to different filter types ("eq" filter by default as in the example below). Click on it and drag it around., f 66;
#X text 220 388 sets filter type: <allpass \, lowpass \, highpass \, bandpass \, resonant \, bandstop \, eq \, lowshelf \, highshelf> and arguments for center frequency \, Q and gain, f 47;
#X text 207 370 -;
#X text 137 519 -type <list>: filter type (default: "eq 1000 0 0");
#X text 174 370 bang;
#X text 220 370 outputs coefficients, f 47;
#X text 207 438 -;
#X text 220 438 outputs coefficients, f 47;
#X text 94 438 savestate <float>;
#X obj 50 327 print coefficients;
#X obj 50 99 bng 19 250 50 0 empty empty empty 0 -8 0 10 #dfdfdf #000000 #000000;
#X connect 0 0 35 0;
#X connect 24 0 0 0;
#X connect 36 0 24 0;
