#N canvas 570 75 562 431 10;
#X obj 183 171 bng 19 250 50 0 empty empty empty 0 -8 0 10 #dfdfdf #000000 #000000;
#X obj 183 239 print;
#X obj 289 219 unpack s s;
#X msg 289 152 pdfont;
#X symbolatom 289 253 8 0 0 0 - - - 0;
#X symbolatom 376 211 8 0 0 0 - - - 0;
#X text 28 193 see also:;
#X obj 28 215 else/fontsize;
#X obj 2 286 cnv 3 550 3 empty empty inlets 8 12 0 13 #dcdcdc #000000 0;
#X obj 2 332 cnv 3 550 3 empty empty outlets 8 12 0 13 #dcdcdc #000000 0;
#X obj 2 367 cnv 3 550 3 empty empty arguments 8 12 0 13 #dcdcdc #000000 0;
#X obj 136 342 cnv 17 3 17 empty empty 0 5 9 0 16 #dcdcdc #9c9c9c 0;
#X obj 2 400 cnv 15 552 21 empty empty empty 20 12 0 14 #e0e0e0 #202020 0;
#X obj 5 4 cnv 15 301 42 empty empty fonts 20 20 2 37 #e0e0e0 #000000 0;
#X obj 308 5 cnv 15 250 40 empty empty empty 12 13 0 18 #7c7c7c #e0e4dc 0;
#N canvas 0 22 450 278 (subpatch) 0;
#X coords 0 1 100 -1 302 42 1;
#X restore 4 4 graph;
#X obj 347 12 cnv 10 10 10 empty empty ELSE 0 15 2 30 #7c7c7c #e0e4dc 0;
#X obj 25 41 cnv 4 4 4 empty empty Report\ available\ fonts 0 28 2 18 #e0e0e0 #000000 0;
#X obj 460 12 cnv 10 10 10 empty empty EL 0 6 2 13 #7c7c7c #e0e4dc 0;
#X obj 480 12 cnv 10 10 10 empty empty Locus 0 6 2 13 #7c7c7c #e0e4dc 0;
#X obj 517 12 cnv 10 10 10 empty empty Solus' 0 6 2 13 #7c7c7c #e0e4dc 0;
#X obj 466 27 cnv 10 10 10 empty empty ELSE 0 6 2 13 #7c7c7c #e0e4dc 0;
#X obj 504 27 cnv 10 10 10 empty empty library 0 6 2 13 #7c7c7c #e0e4dc 0;
#N canvas 0 22 450 278 (subpatch) 0;
#X coords 0 1 100 -1 252 42 1 0 0;
#X restore 307 4 graph;
#X obj 136 295 cnv 17 3 32 empty empty 0 5 9 0 16 #dcdcdc #9c9c9c 0;
#X text 204 294 bang -;
#X text 78 95 The [fonts] object outputs all of your available fonts in your system. A 'pdinfo' message outpurs a list with Pd's font information (font name and style).;
#X obj 183 205 else/fonts;
#X obj 289 182 else/fonts;
#X text 192 311 pdinfo -;
#X text 253 311 report pd's font info;
#X text 253 294 otputs all system fonts;
#X text 227 374 none;
#X text 162 343 symbol/list -;
#X text 253 342 available fonts or pd's font info list;
#X connect 0 0 27 0;
#X connect 2 0 4 0;
#X connect 2 1 5 0;
#X connect 3 0 28 0;
#X connect 27 0 1 0;
#X connect 28 0 2 0;
